<?xml version="1.0" encoding="UTF-8"?>
<svg xmlns="http://www.w3.org/2000/svg" height="19" viewBox="0 0 32 19" width="32">
  <g fill="none" fill-rule="evenodd">
    <path d="m2.94486469.02594594h25.82918761c1.6345945 0 2.9578377 1.32324317 2.9578377 2.95783767v9.85945889c0 1.6345945-1.3232432 2.9578376-2.9578377 2.9578376h-9.2627021l1.2713513 3.1135134-5.5913511-3.1135134h-12.23351274c-1.6345945 0-2.95793224-1.3232431-2.95793224-2.9578376v-9.85945889c-.01287839-1.62162153 1.31036477-2.95783767 2.94495927-2.95783767z" fill="#9b5c8f"></path>
    <g fill="#fff" fill-rule="nonzero">
      <path d="m1.58270261 2.71135119c.18162161-.24648647.45405403-.37621619.81729725-.40216214.66162158-.05189189 1.03783777.25945945 1.12864858.934054.40216214 2.71135119.84324319 5.00756727 1.31027019 6.88864825l2.84108091-5.40972942c.25945945-.49297294.58378375-.75243239.97297292-.77837833.57081077-.03891892.92108102.3243243 1.06378372 1.08972966.32432432 1.72540531.73945942 3.19135116 1.23243232 4.4367565.3372973-3.29513494.9081081-5.66918886 1.7124324-7.13513471.1945945-.36324323.4799999-.54486484.8562161-.57081078.2983784-.02594595.5708108.06486486.8172973.25945944.2464865.19459459.3762162.44108106.4021621.73945942.012973.2335135-.0259459.42810808-.1297297.62270266-.5059459.934054-.921081 2.50378364-1.2583783 4.68324297-.3243243 2.11459449-.4410811 3.76216189-.3632432 4.94270239.0259459.3243243-.025946.6097297-.1556757.8562162-.1556757.2854054-.3891892.441081-.6875675.467027-.3372973.0259459-.6875675-.1297297-1.0248648-.48-1.20648644-1.2324323-2.16648638-3.0745944-2.86702688-5.52648615-.84324319 1.66054044-1.46594586 2.90594575-1.868108 3.73621595-.76540536 1.4659459-1.41405397 2.2183783-1.9589188 2.2572972-.35027025.025946-.64864861-.2724324-.90810805-.8951351-.66162159-1.6994593-1.37513506-4.9816213-2.14054042-9.84648587-.03891891-.33729728.02594595-.63567564.20756756-.86918914z"></path>
      <path d="m29.4745928 4.74810783c-.467027-.81729725-1.1545945-1.3102702-2.0756755-1.50486478-.2464865-.05189189-.48-.07783783-.7005405-.07783783-1.2454053 0-2.2572972.64864861-3.0486485 1.94594583-.6745945 1.10270263-1.0118918 2.32216202-1.0118918 3.65837816 0 .99891886.2075675 1.85513499.6227027 2.56864849.467027.8172973 1.1545945 1.3102702 2.0756755 1.5048648.2464865.0518919.48.0778378.7005405.0778378 1.2583783 0 2.2702701-.6486486 3.0486485-1.9459458.6745945-1.11567563 1.0118918-2.33513501 1.0118918-3.67135115 0-1.01189183-.2075676-1.85513503-.6227027-2.55567552zm-1.6345945 3.59351329c-.1816216.85621617-.5059459 1.49189181-.9859458 1.91999988-.3762162.3372973-.7264865.48-1.0508108.4151351-.3113513-.0648648-.5708108-.3372973-.7654054-.84324317-.1556756-.40216214-.2335135-.80432428-.2335135-1.18054047 0-.32432431.025946-.64864861.0908109-.94702697.1167567-.53189186.3372972-1.05081075.6875675-1.5437837.4281081-.63567563.8821621-.89513508 1.3491891-.80432427.3113513.06486486.5708108.33729728.7654053.84324319.1556757.40216214.2335135.80432428.2335135 1.18054047 0 .33729728-.0389189.66162158-.0908108.95999994z"></path>
      <path d="m21.3405393 4.74810783c-.467027-.81729725-1.1675675-1.3102702-2.0756756-1.50486478-.2464865-.05189189-.48-.07783783-.7005405-.07783783-1.2454053 0-2.2572971.64864861-3.0486484 1.94594583-.6745946 1.10270263-1.0118919 2.32216202-1.0118919 3.65837816 0 .99891886.2075676 1.85513499.6227027 2.56864849.467027.8172973 1.1545945 1.3102702 2.0756755 1.5048648.2464865.0518919.48.0778378.7005405.0778378 1.2583783 0 2.2702702-.6486486 3.0486485-1.9459458.6745946-1.11567563 1.0118918-2.33513501 1.0118918-3.67135115 0-1.01189183-.2075675-1.85513503-.6227026-2.55567552zm-1.6345945 3.59351329c-.1816216.85621617-.5059459 1.49189181-.9859459 1.91999988-.3762162.3372973-.7264865.48-1.0508108.4151351-.3113513-.0648648-.5708107-.3372973-.7654053-.84324317-.1556757-.40216214-.2335135-.80432428-.2335135-1.18054047 0-.32432431.0259459-.64864861.0908108-.94702697.1167567-.53189186.3372973-1.05081075.6875675-1.5437837.4281081-.63567563.8821621-.89513508 1.3491891-.80432427.3113514.06486486.5708108.33729728.7654054.84324319.1556756.40216214.2335135.80432428.2335135 1.18054047 0 .33729728-.025946.66162158-.0908108.95999994z"></path>
    </g>
  </g>
</svg>
