<?xml version="1.0" encoding="UTF-8"?>
<svg xmlns="http://www.w3.org/2000/svg" height="34" viewBox="0 0 34 34" width="34">
  <g fill="#34313f">
    <path d="m16.6600016 19.0400017h4.2200004c1.2000001 0 1.9600001-.6600001 1.9600001-1.7200002 0-1-.76-1.7200001-1.9600001-1.7200001h-4.2200004c-.14 0-.26.12-.26.24v2.9600003c.02.14.12.24.26.24z"></path>
    <path d="m16.6600016 25.8600023h4.3600004c1.3400001 0 2.1400002-.68 2.1400002-1.8800002 0-1.04-.7600006-1.8800001-2.1400002-1.8800001h-4.3600004c-.14 0-.26.12-.26.24v3.26c.02.1600003.12.2600003.26.2600003z"></path>
    <path d="m33.100003.08000001-12.4800012 12.44000109h2.0400002c3.1800003 0 5.0600005 2.0000002 5.0600005 4.1800004 0 1.7200001-1.1600001 2.9800003-2.4000002 3.5400003-.2000001.08-.2000001.36.02.44 1.4400001.5600001 2.4600002 2.0600002 2.4600002 3.8200004 0 2.4800002-1.6600002 4.4600004-4.8800005 4.4600004h-8.8400007c-.1400001 0-.2600001-.12-.2600001-.24v-9.4200009l-13.70000119 13.6400012c-.18000002.1800001-.06.5000001.20000002.5000001h32.94000297c.12 0 .22-.1.22-.22v-32.96000298c.06-.22000002-.22-.34000003-.38-.18000001z"></path>
  </g>
</svg>
